<svg width="111" height="111" viewBox="0 0 111 111" fill="none" xmlns="http://www.w3.org/2000/svg">
<circle cx="55.5" cy="55.5" r="55.5" fill="black"/>
<path d="M37.3878 79V28.8182H58.3132C62.0703 28.8182 65.2148 29.3491 67.7468 30.4109C70.2951 31.4727 72.2063 32.9592 73.4805 34.8704C74.771 36.7816 75.4162 38.995 75.4162 41.5107C75.4162 43.4219 75.016 45.1289 74.2156 46.6317C73.4151 48.1183 72.3125 49.3516 70.9077 50.3317C69.5028 51.3118 67.8775 51.9979 66.0316 52.3899V52.88C68.0572 52.978 69.9276 53.5252 71.6428 54.5217C73.3743 55.5181 74.7628 56.9066 75.8082 58.6871C76.8537 60.4513 77.3764 62.5423 77.3764 64.9599C77.3764 67.6552 76.6903 70.0646 75.3182 72.1882C73.946 74.2955 71.9613 75.9616 69.364 77.1868C66.7667 78.3956 63.614 79 59.9059 79H37.3878ZM49.5167 69.2234H57.0146C59.6445 69.2234 61.5803 68.7251 62.8217 67.7287C64.0795 66.7322 64.7085 65.3438 64.7085 63.5632C64.7085 62.2727 64.4063 61.1619 63.8018 60.2308C63.1974 59.2834 62.3398 58.5565 61.229 58.0501C60.1183 57.5273 58.7869 57.266 57.2351 57.266H49.5167V69.2234ZM49.5167 49.4496H56.2305C57.5536 49.4496 58.7298 49.229 59.7589 48.788C60.788 48.3469 61.5884 47.7099 62.1602 46.8768C62.7482 46.0437 63.0423 45.0391 63.0423 43.8629C63.0423 42.1804 62.446 40.8572 61.2536 39.8935C60.0611 38.9297 58.4521 38.4478 56.4265 38.4478H49.5167V49.4496Z" fill="white"/>
</svg>
