<svg width="111" height="111" viewBox="0 0 111 111" fill="none" xmlns="http://www.w3.org/2000/svg">
<circle cx="55.5" cy="55.5" r="55.5" fill="black"/>
<path d="M55.3466 79H36.7979V28.8182H55.3221C60.435 28.8182 64.8374 29.8228 68.5291 31.832C72.2372 33.8249 75.0959 36.6999 77.1051 40.457C79.1143 44.1978 80.119 48.6736 80.119 53.8846C80.119 59.1119 79.1143 63.604 77.1051 67.3612C75.1122 71.1183 72.2617 74.0014 68.5536 76.0107C64.8455 78.0036 60.4432 79 55.3466 79ZM48.9268 68.6598H54.881C57.6907 68.6598 60.0675 68.1861 62.0114 67.2386C63.9716 66.2749 65.4499 64.7148 66.4464 62.5586C67.4592 60.386 67.9656 57.4947 67.9656 53.8846C67.9656 50.2745 67.4592 47.3995 66.4464 45.2596C65.4336 43.1033 63.9389 41.5515 61.9624 40.604C60.0021 39.6403 57.5845 39.1584 54.7095 39.1584H48.9268V68.6598Z" fill="white"/>
</svg>
