<?xml version="1.0" encoding="utf-8"?>
<!-- Svg Vector Icons : http://www.onlinewebfonts.com/icon -->
<!DOCTYPE svg PUBLIC "-//W3C//DTD SVG 1.1//EN" "http://www.w3.org/Graphics/SVG/1.1/DTD/svg11.dtd">
<svg version="1.1" xmlns="http://www.w3.org/2000/svg" xmlns:xlink="http://www.w3.org/1999/xlink" x="0px" y="0px" viewBox="0 0 1000 1000" enable-background="new 0 0 1000 1000" xml:space="preserve">
<metadata> Svg Vector Icons : http://www.onlinewebfonts.com/icon </metadata>
<g><g transform="translate(0.000000,642.000000) scale(0.100000,-0.100000)"><path d="M4608,6309c-654-58.2-1190-208.3-1776.6-497.7c-488.6-240.4-909.7-540.6-1294.1-926.6c-385.9-384.4-686.1-805.6-926.6-1294.1c-151.6-306.3-215.9-468.6-303.2-758.1C51.8,1988.6,31.9,1082,250.9,213.6c359.9-1425.8,1372.2-2638.8,2710.8-3248.3c1435-654,3101.3-580.4,4464.4,197.6c378.3,216,706,468.7,1035.3,797.9c494.7,494.7,839.3,1013.9,1090.4,1647.9c654,1641.8,373.7,3510.2-730.5,4879.4c-807.1,1003.1-1942,1634.1-3231.5,1799.5C5366.1,6315.2,4819.4,6327.4,4608,6309z M5350.8,3873.9v-490.1h-352.3h-352.2V1431.1V-521.5h804h805.6l-4.6,528.4l-4.6,528.4h578.9h577.4V-490.9V-1517H5090.5H2777.9v497.7v497.7h352.2h352.3v1952.7v1952.7h-352.3h-352.2v490.1V4364h1286.5h1286.5V3873.9z"/></g></g>
</svg>