<svg width="111" height="111" viewBox="0 0 111 111" fill="none" xmlns="http://www.w3.org/2000/svg">
<circle cx="55.5" cy="55.5" r="55.5" fill="black"/>
<path d="M64.6472 45.8629C64.4838 44.066 63.7569 42.6694 62.4664 41.6729C61.1923 40.6602 59.3709 40.1538 57.0023 40.1538C55.4341 40.1538 54.1273 40.358 53.0819 40.7663C52.0364 41.1747 51.2523 41.7383 50.7296 42.457C50.2069 43.1594 49.9373 43.968 49.921 44.8828C49.8883 45.6342 50.0353 46.2958 50.362 46.8675C50.7051 47.4393 51.1951 47.9457 51.8322 48.3867C52.4856 48.8114 53.2697 49.1871 54.1845 49.5138C55.0993 49.8406 56.1284 50.1264 57.2718 50.3714L61.5843 51.3516C64.0673 51.8906 66.2562 52.6094 68.1511 53.5078C70.0623 54.4062 71.6632 55.4762 72.9537 56.7177C74.2605 57.9592 75.2488 59.3885 75.9185 61.0057C76.5882 62.6229 76.9313 64.4361 76.9476 66.4453C76.9313 69.6143 76.1309 72.3342 74.5463 74.6048C72.9618 76.8754 70.6831 78.6151 67.7101 79.8239C64.7534 81.0327 61.1841 81.6371 57.0023 81.6371C52.8042 81.6371 49.1451 81.0082 46.025 79.7504C42.905 78.4925 40.4792 76.5813 38.7477 74.0167C37.0162 71.4521 36.1259 68.2095 36.0769 64.2891H47.6912C47.7892 65.9062 48.2221 67.2539 48.9899 68.332C49.7576 69.4102 50.8113 70.2269 52.1507 70.7823C53.5066 71.3377 55.0748 71.6154 56.8553 71.6154C58.4888 71.6154 59.8773 71.3949 61.0208 70.9538C62.1806 70.5128 63.0708 69.9002 63.6916 69.1161C64.3123 68.332 64.6309 67.4336 64.6472 66.4208C64.6309 65.4734 64.3368 64.6648 63.7651 63.995C63.1934 63.3089 62.3113 62.7209 61.1188 62.2308C59.9427 61.7244 58.4398 61.2589 56.6103 60.8342L51.3667 59.609C47.0215 58.6126 43.5993 57.0036 41.1 54.782C38.6007 52.544 37.3592 49.522 37.3755 45.7159C37.3592 42.6122 38.1923 39.8924 39.8748 37.5565C41.5574 35.2205 43.8851 33.3991 46.8581 32.0923C49.8311 30.7855 53.2207 30.1321 57.0268 30.1321C60.9146 30.1321 64.2878 30.7937 67.1465 32.1168C70.0215 33.4236 72.2512 35.2614 73.8358 37.63C75.4203 39.9986 76.2289 42.7429 76.2615 45.8629H64.6472Z" fill="white"/>
</svg>
